<svg width="46" height="60" viewBox="0 0 46 60" fill="none" xmlns="http://www.w3.org/2000/svg">
<path d="M42.6706 34.5331L27.5139 19.3764C27.2834 19.1459 27.0358 18.9396 26.7784 18.7481C28.41 17.5255 29.4747 15.5857 29.4747 13.3957C29.4747 9.70284 26.4702 6.69836 22.7773 6.69836C19.0844 6.69836 16.0799 9.70284 16.0799 13.3957C16.0799 14.9067 16.5957 16.2917 17.4434 17.4143H13.7262L11.5842 15.2723C12.7014 14.0748 13.4006 12.4809 13.4006 10.7164C13.4006 7.02352 10.3961 4.01904 6.70324 4.01904C3.01033 4.01904 0.00585938 7.02352 0.00585938 10.7164C0.00585938 11.6488 0.200057 12.5368 0.545844 13.3446C0.385287 14.5718 0.75754 15.8118 1.64287 16.6976L9.22064 24.274C9.97816 25.0333 10.9868 25.4513 12.0614 25.4513H16.0799V37.5069C16.0799 38.1926 16.1898 38.8703 16.4082 39.5336L2.88647 53.053C1.31948 54.62 1.31948 57.1694 2.88647 58.7363C4.45346 60.3033 7.00281 60.3033 8.56981 58.7363L23.11 44.1962C23.3109 44.1868 23.4997 44.1374 23.6952 44.1092L26.9571 47.3711L21.2738 53.0544C19.7068 54.6214 19.7068 57.1708 21.2738 58.7377C22.8408 60.3047 25.3901 60.3047 26.9571 58.7377L35.4817 50.2132C37.0474 48.6462 37.0474 46.0969 35.4817 44.5299L29.3831 38.4313C29.4261 38.1258 29.4741 37.8231 29.4741 37.5069V32.7035L36.986 40.2154C38.553 41.7824 41.1023 41.7824 42.6693 40.2154C44.2355 38.6492 44.2368 36.099 42.6698 34.533L42.6706 34.5331ZM22.7778 9.37719C24.9934 9.37719 26.7963 11.1801 26.7963 13.3957C26.7963 15.6113 24.9934 17.4142 22.7778 17.4142C20.5622 17.4142 18.7593 15.6113 18.7593 13.3957C18.7593 11.1801 20.5622 9.37719 22.7778 9.37719ZM6.70372 6.69787C8.9193 6.69787 10.7222 8.5008 10.7222 10.7164C10.7222 12.932 8.9193 14.7349 6.70372 14.7349C4.48814 14.7349 2.6852 12.932 2.6852 10.7164C2.6852 8.5008 4.48814 6.69787 6.70372 6.69787ZM33.5888 46.4238C34.1113 46.9463 34.1113 47.7953 33.5888 48.3192L25.0628 56.8437C24.5578 57.3501 23.6752 57.3501 23.1689 56.8437C22.6464 56.3212 22.6464 55.4722 23.1689 54.9483L29.7994 48.3178C30.051 48.0662 30.1918 47.7258 30.1918 47.3706C30.1918 47.0158 30.051 46.674 29.7994 46.4233L26.4545 43.0784C27.2075 42.5802 27.861 41.9464 28.3593 41.1939L33.5888 46.4238ZM40.7767 38.3213C40.2529 38.8438 39.4025 38.8425 38.8814 38.3213L29.0831 28.523C28.7001 28.1387 28.1242 28.0247 27.6232 28.2324C27.1231 28.4396 26.7962 28.9285 26.7962 29.4698V37.5068C26.7962 39.7224 24.9932 41.5253 22.8553 41.528C22.8082 41.5212 22.6665 41.5064 22.6194 41.5051C22.239 41.4836 21.8865 41.6338 21.6228 41.8962L6.67507 56.8428C6.17007 57.3491 5.28742 57.3491 4.78109 56.8428C4.25859 56.3203 4.25859 55.4713 4.78109 54.9474L18.9286 40.7999C19.3345 40.3954 19.4363 39.7764 19.1829 39.262C18.9021 38.6888 18.7586 38.0981 18.7586 37.5075V24.112C18.7586 23.3725 18.1585 22.7724 17.4189 22.7724H12.0607C11.7033 22.7724 11.3669 22.6329 11.1135 22.3799L6.08498 17.3514C6.29174 17.3716 6.49132 17.4146 6.70301 17.4146C7.65292 17.4146 8.5544 17.2097 9.37383 16.8522L12.2245 19.7015C12.4752 19.9526 12.8165 20.0935 13.1717 20.0935H22.7771C23.8499 20.0935 24.8599 20.5128 25.6197 21.2708L40.7752 36.4263C41.2977 36.9488 41.2977 37.7996 40.7766 38.3222L40.7767 38.3213Z" fill="#C9A555"/>
</svg>
