<svg width="32" height="32" viewBox="0 0 32 32" fill="none" xmlns="http://www.w3.org/2000/svg">
<g opacity="0.6">
<path d="M25.3335 9.33398H6.66683C5.93045 9.33398 5.3335 9.93094 5.3335 10.6673V28.0007C5.3335 28.737 5.93045 29.334 6.66683 29.334H25.3335C26.0699 29.334 26.6668 28.737 26.6668 28.0007V10.6673C26.6668 9.93094 26.0699 9.33398 25.3335 9.33398Z" stroke="#C9A555" stroke-width="2" stroke-linecap="round" stroke-linejoin="round"/>
<path d="M11.3335 12.0003V7.33366C11.3335 6.72082 11.4542 6.11399 11.6887 5.5478C11.9232 4.98162 12.267 4.46717 12.7003 4.03383C13.1337 3.60049 13.6481 3.25674 14.2143 3.02222C14.7805 2.7877 15.3873 2.66699 16.0002 2.66699C16.613 2.66699 17.2198 2.7877 17.786 3.02222C18.3522 3.25674 18.8667 3.60049 19.3 4.03383C19.7333 4.46717 20.0771 4.98162 20.3116 5.5478C20.5461 6.11399 20.6668 6.72082 20.6668 7.33366V12.0003" stroke="#C9A555" stroke-width="2" stroke-linecap="round" stroke-linejoin="round"/>
</g>
</svg>
