<svg width="50" height="60" viewBox="0 0 50 60" fill="none" xmlns="http://www.w3.org/2000/svg">
<g clip-path="url(#clip0_437_144)">
<path d="M48.1591 1.90723H4.29153C3.76703 1.90723 3.33789 2.33637 3.33789 2.86087V33.2586C3.34981 40.6732 7.6889 47.3845 14.4481 50.4362L17.9051 51.9978C21.0282 53.4044 23.6508 55.7288 25.415 58.6733C25.6892 59.1262 26.2733 59.2693 26.7262 58.9951C26.8573 58.9117 26.9765 58.8044 27.0481 58.6733C28.8124 55.7288 31.4229 53.4044 34.558 51.9978L38.015 50.4362C44.7739 47.3845 49.1132 40.6733 49.1252 33.2586V2.86087C49.1132 2.33637 48.6841 1.90723 48.1596 1.90723H48.1591ZM29.6944 30.5165H22.7685L20.6824 23.9721L26.2374 20.2172L31.8639 23.9364L29.6944 30.5165ZM26.2255 14.0179L22.5302 10.9424C24.95 10.3345 27.4891 10.3345 29.909 10.9424L26.2255 14.0179ZM26.2255 8.58218C25.2719 8.58218 24.3064 8.66562 23.3646 8.82059V3.81391H29.0865V8.82059C28.1447 8.66562 27.1792 8.58218 26.2255 8.58218ZM21.4573 9.26165C19.7646 9.7504 18.1553 10.5014 16.6891 11.4908V3.8139H21.4573V9.26165ZM20.3964 11.6458L25.2718 15.6988V18.5597L19.407 22.5293L16.6533 21.6352L14.4242 16.0922C16.0215 14.1372 18.0719 12.6114 20.3964 11.6459V11.6458ZM13.113 17.9517L14.746 22.0166L11.0387 24.3531C11.2414 22.0882 11.9447 19.9067 13.1128 17.9518L13.113 17.9517ZM16.0574 23.4471L18.7991 24.3411L21.0163 31.3027L19.3116 33.6392L13.4109 34.0325C11.9686 31.8153 11.1341 29.2762 10.9911 26.6419L16.0574 23.4471ZM19.0971 35.5578L20.1581 39.7419C18.1078 38.8479 16.2839 37.5128 14.8058 35.8439L19.0971 35.5578ZM22.3157 40.4928L20.8613 34.7591L22.554 32.4226H29.8971L31.5421 34.6995L30.0759 40.5167C27.5249 41.1723 24.8547 41.1723 22.3157 40.4929V40.4928ZM33.306 35.51L37.6927 35.808C36.1908 37.5246 34.3192 38.8836 32.2212 39.7895L33.306 35.51ZM39.0636 33.9723L33.0795 33.5789L31.4344 31.3021L33.7351 24.3047L36.4649 23.4107L41.4596 26.5577C41.3284 29.2041 40.494 31.7551 39.0636 33.9723V33.9723ZM37.7881 21.9924L39.3735 18.0228C40.506 19.9301 41.1973 22.0759 41.4119 24.2811L37.7881 21.9924ZM35.8808 21.6109L33.1271 22.505L27.1788 18.5593V15.6984L32.0543 11.6453C34.4026 12.6228 36.4768 14.1606 38.0741 16.1393L35.8808 21.6109ZM30.9934 9.26154V3.8139H35.7616V11.4788C34.2954 10.5013 32.6861 9.75035 30.9934 9.26154ZM47.2053 33.2574C47.1934 39.921 43.2954 45.9523 37.2278 48.6944L33.7708 50.256C30.7549 51.6029 28.1443 53.7368 26.2252 56.4308C24.306 53.7367 21.7073 51.6029 18.6795 50.256L15.2225 48.6944C9.15496 45.9527 5.24502 39.9209 5.24502 33.2574V3.81325H7.15231V18.1179H9.05959V3.81325H14.7814V12.9682C11.1337 16.2106 9.05959 20.8596 9.05959 25.747C9.05959 35.212 16.7602 42.9126 26.2252 42.9126C35.6901 42.9126 43.3907 35.212 43.3907 25.747C43.3907 20.8596 41.3166 16.2106 37.6689 12.9682V3.81325H43.3907V18.1179H45.298V3.81325H47.2053V33.2574Z" fill="#C9A555"/>
<path d="M15.7354 44.8213H17.6426V46.7286H15.7354V44.8213Z" fill="#C9A555"/>
<path d="M20.5034 44.8213H22.4107V46.7286H20.5034V44.8213Z" fill="#C9A555"/>
<path d="M25.2715 44.8213H27.1788V46.7286H25.2715V44.8213Z" fill="#C9A555"/>
<path d="M30.04 44.8213H31.9473V46.7286H30.04V44.8213Z" fill="#C9A555"/>
<path d="M34.8081 44.8213H36.7154V46.7286H34.8081V44.8213Z" fill="#C9A555"/>
<path d="M8.58265 33.0196L6.81836 33.7348C7.90312 36.3573 9.50044 38.7415 11.5388 40.7321L12.8739 39.3732C11.0263 37.5613 9.57193 35.4036 8.58254 33.0195L8.58265 33.0196Z" fill="#C9A555"/>
<path d="M12.6357 41.7334C13.1483 42.1744 13.6847 42.5797 14.2331 42.9731L15.3297 41.4115C14.829 41.0658 14.3403 40.6844 13.8754 40.291L12.6357 41.7334Z" fill="#C9A555"/>
<path d="M37.1207 41.4001L38.2174 42.9617C38.7657 42.5802 39.3021 42.163 39.8147 41.7219L38.5749 40.2676C38.11 40.6729 37.6213 41.0543 37.1206 41.4001H37.1207Z" fill="#C9A555"/>
<path d="M39.5763 39.3741L40.9114 40.7331C42.9498 38.7423 44.5471 36.3702 45.6319 33.7357L43.8676 33.0205C42.8782 35.4046 41.4238 37.5622 39.5762 39.3742L39.5763 39.3741Z" fill="#C9A555"/>
</g>
<defs>
<clipPath id="clip0_437_144">
<rect width="49.2715" height="60" fill="white"/>
</clipPath>
</defs>
</svg>
