<svg width="26" height="23" viewBox="0 0 26 23" fill="none" xmlns="http://www.w3.org/2000/svg">
    <path d="M23.8131 1L14.4375 7.81818L16.181 3.80001L23.8131 1Z" fill="#E17726" stroke="#E17726" stroke-width="0.25" stroke-linecap="round" stroke-linejoin="round"/>
    <path d="M2.18701 1L11.4792 7.88181L9.8192 3.8L2.18701 1Z" fill="#E27625" stroke="#E27625" stroke-width="0.25" stroke-linecap="round" stroke-linejoin="round"/>
    <path d="M20.4372 16.8091L17.9426 20.5545L23.2842 22L24.8144 16.891L20.4372 16.8091Z" fill="#E27625" stroke="#E27625" stroke-width="0.25" stroke-linecap="round" stroke-linejoin="round"/>
    <path d="M1.19458 16.891L2.71544 22L8.04778 20.5545L5.56243 16.8091L1.19458 16.891Z" fill="#E27625" stroke="#E27625" stroke-width="0.25" stroke-linecap="round" stroke-linejoin="round"/>
    <path d="M7.76036 10.4822L6.27661 12.6822L11.5625 12.9185L11.3864 7.32764L7.76036 10.4822Z" fill="#E27625" stroke="#E27625" stroke-width="0.25" stroke-linecap="round" stroke-linejoin="round"/>
    <path d="M18.2394 10.4818L14.5578 7.26367L14.4373 12.9182L19.7232 12.6819L18.2394 10.4818Z" fill="#E27625" stroke="#E27625" stroke-width="0.25" stroke-linecap="round" stroke-linejoin="round"/>
    <path d="M8.04785 20.5545L11.2472 19.0363L8.493 16.9272L8.04785 20.5545Z" fill="#E27625" stroke="#E27625" stroke-width="0.25" stroke-linecap="round" stroke-linejoin="round"/>
    <path d="M14.7527 19.0363L17.9428 20.5545L17.5069 16.9272L14.7527 19.0363Z" fill="#E27625" stroke="#E27625" stroke-width="0.25" stroke-linecap="round" stroke-linejoin="round"/>
    <path d="M17.9428 20.5543L14.7527 19.0361L15.0123 21.0725L14.9845 21.9361L17.9428 20.5543Z" fill="#D5BFB2" stroke="#D5BFB2" stroke-width="0.25" stroke-linecap="round" stroke-linejoin="round"/>
    <path d="M8.04785 20.5543L11.0154 21.9361L10.9969 21.0725L11.2472 19.0361L8.04785 20.5543Z" fill="#D5BFB2" stroke="#D5BFB2" stroke-width="0.25" stroke-linecap="round" stroke-linejoin="round"/>
    <path d="M11.0712 15.5817L8.41895 14.8181L10.2922 13.9727L11.0712 15.5817Z" fill="#233447" stroke="#233447" stroke-width="0.25" stroke-linecap="round" stroke-linejoin="round"/>
    <path d="M14.929 15.5817L15.708 13.9727L17.5905 14.8181L14.929 15.5817Z" fill="#233447" stroke="#233447" stroke-width="0.25" stroke-linecap="round" stroke-linejoin="round"/>
    <path d="M8.0478 20.5545L8.51151 16.8091L5.5625 16.891L8.0478 20.5545Z" fill="#CC6228" stroke="#CC6228" stroke-width="0.25" stroke-linecap="round" stroke-linejoin="round"/>
    <path d="M17.4883 16.8091L17.9427 20.5545L20.4373 16.891L17.4883 16.8091Z" fill="#CC6228" stroke="#CC6228" stroke-width="0.25" stroke-linecap="round" stroke-linejoin="round"/>
    <path d="M19.7232 12.6816L14.4373 12.918L14.9287 15.5817L15.7077 13.9726L17.5903 14.818L19.7232 12.6816Z" fill="#CC6228" stroke="#CC6228" stroke-width="0.25" stroke-linecap="round" stroke-linejoin="round"/>
    <path d="M8.4188 14.818L10.2921 13.9726L11.0711 15.5817L11.5625 12.918L6.27661 12.6816L8.4188 14.818Z" fill="#CC6228" stroke="#CC6228" stroke-width="0.25" stroke-linecap="round" stroke-linejoin="round"/>
    <path d="M6.27686 12.6816L8.49326 16.9271L8.41902 14.818L6.27686 12.6816Z" fill="#E27525" stroke="#E27525" stroke-width="0.25" stroke-linecap="round" stroke-linejoin="round"/>
    <path d="M17.5903 14.818L17.5068 16.9271L19.7232 12.6816L17.5903 14.818Z" fill="#E27525" stroke="#E27525" stroke-width="0.25" stroke-linecap="round" stroke-linejoin="round"/>
    <path d="M11.5628 12.918L11.0713 15.5817L11.6926 18.7271L11.8317 14.5816L11.5628 12.918Z" fill="#E27525" stroke="#E27525" stroke-width="0.25" stroke-linecap="round" stroke-linejoin="round"/>
    <path d="M14.4374 12.918L14.1777 14.5726L14.3076 18.7271L14.9289 15.5817L14.4374 12.918Z" fill="#E27525" stroke="#E27525" stroke-width="0.25" stroke-linecap="round" stroke-linejoin="round"/>
    <path d="M14.9289 15.582L14.3076 18.7274L14.7528 19.0365L17.507 16.9275L17.5905 14.8184L14.9289 15.582Z" fill="#F5841F" stroke="#F5841F" stroke-width="0.25" stroke-linecap="round" stroke-linejoin="round"/>
    <path d="M8.41895 14.8184L8.49318 16.9275L11.2474 19.0365L11.6925 18.7274L11.0712 15.582L8.41895 14.8184Z" fill="#F5841F" stroke="#F5841F" stroke-width="0.25" stroke-linecap="round" stroke-linejoin="round"/>
    <path d="M14.9845 21.9365L15.0123 21.0729L14.7712 20.8729H11.2287L10.9969 21.0729L11.0154 21.9365L8.04785 20.5547L9.08649 21.391L11.1916 22.8183H14.799L16.9134 21.391L17.9427 20.5547L14.9845 21.9365Z" fill="#C0AC9D" stroke="#C0AC9D" stroke-width="0.25" stroke-linecap="round" stroke-linejoin="round"/>
    <path d="M14.7526 19.0361L14.3075 18.7271H11.6923L11.2472 19.0361L10.9968 21.0725L11.2287 20.8725H14.7712L15.0123 21.0725L14.7526 19.0361Z" fill="#161616" stroke="#161616" stroke-width="0.25" stroke-linecap="round" stroke-linejoin="round"/>
    <path d="M24.2117 8.26361L25 4.5L23.8129 1L14.7527 7.59094L18.2395 10.4818L23.1638 11.8909L24.2488 10.6455L23.7759 10.3091L24.527 9.6364L23.9521 9.20002L24.7032 8.63636L24.2117 8.26361Z" fill="#763E1A" stroke="#763E1A" stroke-width="0.25" stroke-linecap="round" stroke-linejoin="round"/>
    <path d="M1 4.5L1.79753 8.26361L1.28748 8.63636L2.04791 9.20002L1.47295 9.6364L2.22411 10.3091L1.75116 10.6455L2.83617 11.8909L7.76047 10.4818L11.2473 7.59094L2.18702 1L1 4.5Z" fill="#763E1A" stroke="#763E1A" stroke-width="0.25" stroke-linecap="round" stroke-linejoin="round"/>
    <path d="M23.1637 11.891L18.2394 10.4819L19.7232 12.682L17.5068 16.9274L20.4373 16.891H24.8144L23.1637 11.891Z" fill="#F5841F" stroke="#F5841F" stroke-width="0.25" stroke-linecap="round" stroke-linejoin="round"/>
    <path d="M7.76024 10.4819L2.836 11.891L1.19458 16.891H5.56243L8.49285 16.9274L6.2765 12.682L7.76024 10.4819Z" fill="#F5841F" stroke="#F5841F" stroke-width="0.25" stroke-linecap="round" stroke-linejoin="round"/>
    <path d="M14.4373 12.9185L14.7526 7.59117L16.1807 3.80029H9.81909L11.2472 7.59117L11.5625 12.9185L11.6831 14.5912L11.6923 18.7276H14.3075L14.3168 14.5912L14.4373 12.9185Z" fill="#F5841F" stroke="#F5841F" stroke-width="0.25" stroke-linecap="round" stroke-linejoin="round"/>
</svg>
