<svg width="49" height="60" viewBox="0 0 49 60" fill="none" xmlns="http://www.w3.org/2000/svg">
<g clip-path="url(#clip0_437_132)">
<path d="M15.307 53.1586C6.16662 49.4382 0.166992 40.5304 0.166992 30.6615C0.166992 19.7965 7.39199 10.2536 17.8057 7.29717L17.8045 4.9776C17.8045 4.12815 18.7206 3.60594 19.4469 4.00624L29.5668 8.53917C30.4483 8.93182 30.4248 10.174 29.5668 10.5554L19.363 15.1252C18.6273 15.4532 17.8083 14.9057 17.8083 14.1162L17.8074 11.9485C9.9075 14.7534 4.6 22.2407 4.6 30.6603C4.6 38.7485 9.47554 46.004 16.9687 49.0535L15.3065 53.1578L15.307 53.1586ZM16.1146 34.3252L20.1536 33.924C20.6142 36.4728 21.9632 37.8479 24.6177 37.8479C26.3624 37.8479 28.6323 37.1409 28.6323 35.0262C28.6323 32.8269 25.0878 32.4205 23.4252 32.0048C20.1518 31.1848 16.8884 29.7482 16.8884 25.8277C16.8884 22.3276 19.6519 20.6347 22.7054 20.2027V17.9042H26.196V20.2117C29.5022 20.6694 32.0476 22.4705 32.1845 26.3628L28.0308 26.5056C27.6621 24.2917 26.4808 23.527 24.2981 23.527C23.0338 23.527 20.8413 23.9051 20.8413 25.5514C20.8413 27.3242 23.9701 27.8726 25.2519 28.1775C29.2353 29.1134 32.7854 30.2952 32.7854 35.0035C32.7854 39.0672 29.6575 40.8474 26.1955 41.252V43.4155H22.7048V41.2247C18.9815 40.7182 16.6218 38.5813 16.1145 34.3264L16.1146 34.3252ZM29.5377 46.1935C30.2734 45.8655 31.0933 46.413 31.0933 47.2025V49.3779C39.0006 46.5698 44.3008 39.0877 44.3008 30.6606C44.3008 22.702 39.5963 15.5578 32.2836 12.4141L34.0317 8.34524C42.9347 12.1712 48.7337 20.9691 48.7337 30.6606C48.7337 41.5191 41.5014 51.0597 31.0939 54.0129L31.096 56.3414C31.096 57.1909 30.1798 57.7131 29.4518 57.3128L19.3328 52.7798C18.453 52.3872 18.4753 51.1451 19.3328 50.7636L29.5366 46.1938L29.5377 46.1935Z" fill="#C9A555"/>
</g>
<defs>
<clipPath id="clip0_437_132">
<rect width="48.9017" height="60" fill="white"/>
</clipPath>
</defs>
</svg>
