<svg width="32" height="32" viewBox="0 0 32 32" fill="none" xmlns="http://www.w3.org/2000/svg">
<g opacity="0.6">
<path d="M28.5465 15.2137L16.7732 3.44033C16.2798 2.94699 15.5998 2.66699 14.8932 2.66699H5.33317C3.8665 2.66699 2.6665 3.86699 2.6665 5.33366V14.8937C2.6665 15.6003 2.9465 16.2803 3.45317 16.7737L15.2265 28.547C16.2665 29.587 17.9598 29.587 18.9998 28.547L28.5598 18.987C29.5998 17.947 29.5998 16.267 28.5465 15.2137ZM17.1065 26.667L5.33317 14.8937V5.33366H14.8932L26.6665 17.107L17.1065 26.667Z" fill="#C9A555"/>
<path d="M8.6665 10.667C9.77107 10.667 10.6665 9.77156 10.6665 8.66699C10.6665 7.56242 9.77107 6.66699 8.6665 6.66699C7.56193 6.66699 6.6665 7.56242 6.6665 8.66699C6.6665 9.77156 7.56193 10.667 8.6665 10.667Z" fill="#C9A555"/>
</g>
</svg>
