<svg width="40" height="40" viewBox="0 0 40 40" fill="none" xmlns="http://www.w3.org/2000/svg">
<g opacity="0.6">
<path d="M22.4251 12.4251C22.7773 12.0898 23.246 11.9045 23.7322 11.9082C24.2184 11.9118 24.6842 12.1043 25.0313 12.4448C25.3783 12.7854 25.5795 13.2475 25.5924 13.7335C25.6052 14.2196 25.4287 14.6917 25.1001 15.0501L15.1252 27.5251C14.9536 27.7099 14.7466 27.8581 14.5165 27.961C14.2863 28.0639 14.0378 28.1194 13.7858 28.124C13.5337 28.1287 13.2833 28.0825 13.0495 27.9882C12.8158 27.8939 12.6034 27.7534 12.4251 27.5751L5.81015 20.9601C5.62593 20.7885 5.47818 20.5815 5.3757 20.3515C5.27322 20.1215 5.21811 19.8732 5.21367 19.6214C5.20923 19.3697 5.25554 19.1196 5.34984 18.8861C5.44415 18.6526 5.58451 18.4406 5.76255 18.2625C5.9406 18.0845 6.15269 17.9441 6.38616 17.8498C6.61963 17.7555 6.8697 17.7092 7.12146 17.7136C7.37321 17.7181 7.6215 17.7732 7.8515 17.8757C8.08149 17.9781 8.28849 18.1259 8.46015 18.3101L13.6952 23.5426L22.3751 12.4801C22.3907 12.4608 22.4074 12.4424 22.4251 12.4251ZM20.1251 25.2751L22.4251 27.5751C22.6034 27.753 22.8156 27.8932 23.0491 27.9872C23.2827 28.0813 23.5328 28.1274 23.7845 28.1228C24.0363 28.1181 24.2845 28.0628 24.5144 27.9601C24.7443 27.8574 24.9512 27.7095 25.1226 27.5251L35.1026 15.0501C35.2819 14.8731 35.4237 14.6618 35.5195 14.4288C35.6153 14.1958 35.6632 13.9459 35.6602 13.694C35.6573 13.442 35.6036 13.1933 35.5024 12.9626C35.4012 12.7319 35.2545 12.5239 35.0712 12.3512C34.8878 12.1784 34.6715 12.0444 34.4352 11.957C34.1989 11.8697 33.9474 11.8309 33.6958 11.843C33.4441 11.855 33.1975 11.9176 32.9706 12.0271C32.7437 12.1366 32.5412 12.2906 32.3751 12.4801L23.6926 23.5426L22.4801 22.3276L20.1226 25.2751H20.1251Z" fill="#C9A555"/>
</g>
</svg>
