<svg width="26" height="16" viewBox="0 0 26 16" fill="none" xmlns="http://www.w3.org/2000/svg">
    <path d="M5.32457 3.14203C9.56355 -1.00828 16.4363 -1.00828 20.6753 3.14203L21.1854 3.64152C21.3974 3.84904 21.3974 4.18549 21.1854 4.393L19.4402 6.10168C19.3343 6.20544 19.1624 6.20544 19.0565 6.10168L18.3544 5.41431C15.3972 2.51896 10.6026 2.51896 7.6454 5.41431L6.89357 6.15043C6.78759 6.25418 6.61577 6.25418 6.5098 6.15043L4.76462 4.44175C4.55267 4.23423 4.55267 3.89778 4.76462 3.69027L5.32457 3.14203ZM24.2845 6.67575L25.8377 8.19648C26.0496 8.404 26.0496 8.74044 25.8377 8.94796L18.8341 15.8051C18.6222 16.0126 18.2785 16.0126 18.0666 15.8051C18.0666 15.8051 18.0666 15.8051 18.0666 15.8051L13.0959 10.9384C13.0429 10.8865 12.957 10.8865 12.904 10.9384C12.904 10.9384 12.904 10.9384 12.904 10.9384L7.93342 15.8051C7.72147 16.0126 7.37783 16.0126 7.16588 15.8051C7.16588 15.8051 7.16588 15.8051 7.16588 15.8051L0.162135 8.94787C-0.0498133 8.74036 -0.0498133 8.40391 0.162135 8.19639L1.71535 6.67566C1.9273 6.46815 2.27094 6.46815 2.48289 6.67566L7.45365 11.5425C7.50664 11.5943 7.59255 11.5943 7.64553 11.5425C7.64553 11.5425 7.64554 11.5425 7.64554 11.5425L12.6161 6.67566C12.828 6.46814 13.1716 6.46814 13.3836 6.67565C13.3836 6.67565 13.3836 6.67565 13.3836 6.67566L18.3544 11.5425C18.4073 11.5943 18.4932 11.5943 18.5462 11.5425L23.5169 6.67575C23.7289 6.46824 24.0725 6.46824 24.2845 6.67575Z" fill="#3B99FC" fill-opacity="0.5"/>
</svg>
