<svg width="300" height="60" viewBox="0 0 300 60" fill="none" xmlns="http://www.w3.org/2000/svg">
<path d="M193.726 16.8958H189.61V14.8076H200.234V16.8958H196.119V28.2408H193.726V16.8958Z" fill="#6BF394"/>
<path d="M209.73 22.5482V28.2412H207.454V23.2316C207.454 22.152 207.225 20.8234 205.762 20.8234C204.324 20.8234 203.618 22.0554 203.618 23.2697V28.2411H201.342V13.8984H203.618V20.4042H203.659C203.928 19.925 204.323 19.5285 204.801 19.2576C205.279 18.9867 205.822 18.8517 206.372 18.8673C208.744 18.8673 209.73 20.6887 209.73 22.5482Z" fill="#6BF394"/>
<path d="M220.643 24.4078H213.718C213.793 25.039 214.101 25.6192 214.583 26.034C215.065 26.4488 215.684 26.668 216.319 26.6484C216.788 26.6727 217.254 26.5775 217.676 26.3718C218.097 26.166 218.459 25.8564 218.728 25.4722L220.247 26.6863C219.358 27.9006 218.067 28.5077 216.34 28.5077C213.53 28.5077 211.442 26.7042 211.442 23.7446C211.442 20.8029 213.51 18.8672 216.263 18.8672C218.804 18.8672 220.663 20.5184 220.663 23.8005C220.667 24.0031 220.66 24.2058 220.643 24.4078ZM218.387 22.7769C218.387 21.6007 217.722 20.577 216.243 20.577C215.621 20.5509 215.012 20.7645 214.542 21.1738C214.073 21.583 213.778 22.1567 213.718 22.7769H218.387Z" fill="#6BF394"/>
<path d="M232.669 17.6145C232.365 17.2566 231.988 16.9682 231.563 16.7688C231.138 16.5694 230.675 16.4636 230.205 16.4587C229.102 16.4587 227.832 16.9896 227.832 18.2979C227.832 19.5325 228.879 19.8932 230.393 20.3657C232.12 20.8992 234.32 21.6562 234.32 24.2956C234.32 27.1789 232.065 28.5811 229.428 28.5811C227.68 28.5811 225.876 27.9181 224.814 26.6657L226.522 25.0729C226.871 25.5224 227.317 25.8884 227.826 26.1441C228.334 26.3998 228.894 26.539 229.463 26.5514C230.586 26.5514 231.892 26.0027 231.892 24.5598C231.892 23.1551 230.49 22.7587 228.803 22.2252C227.167 21.7146 225.404 20.917 225.404 18.4122C225.404 15.6813 227.888 14.4671 230.317 14.4671C231.753 14.453 233.145 14.9654 234.229 15.9074L232.669 17.6145Z" fill="#6BF394"/>
<path d="M238.354 19.1339V20.4041H238.415C238.868 19.6852 239.894 18.8672 241.56 18.8672C244.162 18.8672 245.986 20.9553 245.986 23.6506C245.986 26.3053 244.273 28.5077 241.504 28.5077C240.918 28.5276 240.337 28.4029 239.81 28.1446C239.284 27.8863 238.829 27.5024 238.487 27.0267H238.451V32.7958H236.175V19.1339H238.354ZM241.052 20.7267C239.381 20.7267 238.375 22.2636 238.375 23.6862C238.375 25.1113 239.381 26.6101 241.052 26.6101C242.815 26.6101 243.669 25.0732 243.669 23.6506C243.669 22.2255 242.815 20.7267 241.052 20.7267Z" fill="#6BF394"/>
<path d="M252.179 18.8672C254.927 18.8672 257.132 20.7851 257.132 23.6506C257.132 26.5136 254.927 28.5077 252.179 28.5077C249.43 28.5077 247.225 26.5136 247.225 23.6506C247.225 20.7851 249.43 18.8672 252.179 18.8672ZM252.179 26.6101C253.982 26.6101 254.816 25.0732 254.816 23.6506C254.816 22.2255 253.982 20.7267 252.179 20.7267C250.375 20.7267 249.542 22.2255 249.542 23.6506C249.542 25.0732 250.375 26.6101 252.179 26.6101Z" fill="#6BF394"/>
<path d="M258.906 19.134H261.085V20.6531H261.126C261.35 20.131 261.72 19.6847 262.191 19.3678C262.662 19.051 263.215 18.8772 263.783 18.8672C263.968 18.867 264.152 18.8866 264.332 18.9256V21.0112C264.103 20.9498 263.868 20.9182 263.631 20.9172C261.578 20.9172 261.182 22.7006 261.182 23.3661V28.241H258.906V19.134Z" fill="#6BF394"/>
<path d="M264.718 20.9553V19.1339H266.313V16.4971H268.554V19.1339H270.83V20.9553H268.554V25.1875C268.554 26.0028 268.742 26.5898 269.748 26.5898C270.079 26.5953 270.408 26.5312 270.713 26.4018L270.789 28.1851C270.299 28.3491 269.786 28.4323 269.27 28.4315C266.862 28.4315 266.313 26.9505 266.313 25.2053V20.9553H264.718Z" fill="#6BF394"/>
<path d="M277.465 21.5624C277.228 21.2599 276.926 21.0144 276.581 20.8439C276.237 20.6733 275.858 20.5821 275.474 20.5767C274.752 20.5767 274.01 20.8409 274.01 21.5624C274.01 22.2635 274.717 22.454 275.987 22.7589C277.333 23.0815 278.929 23.6861 278.929 25.472C278.929 27.6897 277.125 28.5076 275.133 28.5076C273.726 28.5076 272.268 27.9742 271.394 27.0088L272.893 25.6041C273.17 25.9583 273.524 26.2448 273.928 26.442C274.332 26.6392 274.775 26.7418 275.225 26.7422C275.89 26.7422 276.688 26.4755 276.688 25.66C276.688 24.9005 275.987 24.6744 274.6 24.3518C273.254 24.0291 271.907 23.4779 271.907 21.7708C271.907 19.7411 273.726 18.8672 275.53 18.8672C276.84 18.8672 278.207 19.3245 278.944 20.2542L277.465 21.5624Z" fill="#6BF394"/>
<path d="M197.862 40.3813C197.558 40.0226 197.181 39.7335 196.756 39.5336C196.33 39.3337 195.867 39.2277 195.397 39.2229C194.295 39.2229 193.025 39.7538 193.025 41.0621C193.025 42.2967 194.071 42.6574 195.585 43.1299C197.313 43.6634 199.513 44.4204 199.513 47.0573C199.513 49.9431 197.257 51.3453 194.62 51.3453C192.872 51.3453 191.069 50.6823 190.007 49.4299L191.714 47.8371C192.064 48.2866 192.509 48.6525 193.018 48.9083C193.527 49.164 194.086 49.3032 194.656 49.3156C195.778 49.3156 197.084 48.7669 197.084 47.324C197.084 45.9193 195.682 45.5229 193.995 44.9894C192.359 44.4788 190.596 43.6812 190.596 41.1764C190.596 38.4455 193.081 37.2312 195.509 37.2312C196.945 37.2172 198.337 37.7296 199.421 38.6716L197.862 40.3813Z" fill="#6BF394"/>
<path d="M199.935 43.7191V41.8976H201.53V39.2607H203.77V41.8976H206.047V43.719H203.77V47.9512C203.77 48.7665 203.958 49.3535 204.964 49.3535C205.296 49.3589 205.625 49.2949 205.93 49.1655L206.006 50.9488C205.516 51.1128 205.003 51.196 204.487 51.1952C202.079 51.1952 201.53 49.7142 201.53 47.969V43.7191H199.935Z" fill="#6BF394"/>
<path d="M211.64 41.6309C214.389 41.6309 216.594 43.5488 216.594 46.4143C216.594 49.2773 214.389 51.2714 211.64 51.2714C208.886 51.2714 206.687 49.2773 206.687 46.4143C206.687 43.5488 208.886 41.6309 211.64 41.6309ZM211.64 49.3738C213.444 49.3738 214.277 47.8369 214.277 46.4143C214.277 44.9892 213.444 43.4904 211.64 43.4904C209.837 43.4904 209.003 44.9892 209.003 46.4143C209.003 47.8369 209.837 49.3738 211.64 49.3738Z" fill="#6BF394"/>
<path d="M224.611 44.4205C224.384 44.1415 224.097 43.9168 223.772 43.7626C223.447 43.6083 223.091 43.5285 222.731 43.5288C221.06 43.5288 220.227 45.0276 220.227 46.4527C220.227 47.8753 221.08 49.3741 222.808 49.3741C223.166 49.3805 223.522 49.3112 223.852 49.1707C224.182 49.0302 224.479 48.8217 224.723 48.5588L226.146 49.9992C225.389 50.8145 224.134 51.2719 222.787 51.2719C220.095 51.2719 217.854 49.486 217.854 46.4529C217.854 43.4909 220.054 41.6313 222.731 41.6313C224.057 41.6313 225.445 42.1648 226.166 43.0565L224.611 44.4205Z" fill="#6BF394"/>
<path d="M227.278 36.6621H229.554V45.7311H229.615L233.065 41.8977H235.987L232.044 46.0156L236.235 51.0048H233.218L229.615 46.3382H229.554V51.0048H227.278V36.6621Z" fill="#6BF394"/>
<path d="M240.499 37.5718H244.238L247.728 47.1158H247.784L251.239 37.5718H254.994V51.005H252.626V40.2086H252.585L248.506 51.005H246.839L242.815 40.2086H242.775V51.005H240.499V37.5718Z" fill="#6BF394"/>
<path d="M263.123 49.8464H263.067C262.61 50.6441 261.527 51.2335 260.237 51.2335C258.779 51.2335 256.823 50.5298 256.823 48.4061C256.823 45.693 260.237 45.312 263.082 45.312V45.0859C263.082 43.9656 262.137 43.4143 260.994 43.4143C260.063 43.4328 259.174 43.8063 258.51 44.4584L257.336 43.0739C258.397 42.1339 259.769 41.62 261.187 41.631C264.449 41.631 265.246 43.643 265.246 45.4644V51.0048H263.123V49.8464ZM263.082 46.8488H262.569C261.131 46.8488 259.099 47.0216 259.099 48.3679C259.099 49.2393 259.917 49.506 260.694 49.506C262.249 49.506 263.082 48.6144 263.082 47.1715L263.082 46.8488Z" fill="#6BF394"/>
<path d="M267.477 41.8976H269.656V43.4142H269.697C269.921 42.8927 270.291 42.447 270.762 42.1307C271.234 41.8144 271.786 41.6408 272.354 41.6309C272.538 41.6306 272.722 41.6502 272.903 41.6893V43.7749C272.674 43.7135 272.438 43.6819 272.202 43.6809C270.149 43.6809 269.753 45.4642 269.753 46.1298V51.0047H267.477V41.8976Z" fill="#6BF394"/>
<path d="M274.025 36.6621H276.302V45.7311H276.362L279.812 41.8977H282.734L278.791 46.0156L282.983 51.0048H279.965L276.362 46.3382H276.302V51.0048H274.025V36.6621Z" fill="#6BF394"/>
<path d="M292.23 47.1713H285.305C285.379 47.8025 285.688 48.3827 286.169 48.7975C286.651 49.2123 287.271 49.4315 287.906 49.4119C288.374 49.4362 288.841 49.341 289.262 49.1353C289.683 48.9295 290.045 48.6199 290.314 48.2357L291.833 49.45C290.944 50.6641 289.654 51.2714 287.926 51.2714C285.116 51.2714 283.028 49.4679 283.028 46.5083C283.028 43.5666 285.096 41.6309 287.85 41.6309C290.39 41.6309 292.25 43.2821 292.25 46.5642C292.253 46.7668 292.246 46.9694 292.23 47.1713ZM289.974 45.5404C289.974 44.3642 289.308 43.3405 287.83 43.3405C287.207 43.3145 286.598 43.5281 286.129 43.9373C285.659 44.3465 285.364 44.9203 285.305 45.5404H289.974Z" fill="#6BF394"/>
<path d="M292.829 43.7191V41.8976H294.424V39.2607H296.665V41.8976H298.941V43.719H296.665V47.9512C296.665 48.7665 296.853 49.3535 297.859 49.3535C298.19 49.359 298.519 49.2949 298.824 49.1655L298.9 50.9488C298.411 51.1128 297.898 51.196 297.381 51.1952C294.973 51.1952 294.424 49.7142 294.424 47.969V43.7191H292.829Z" fill="#6BF394"/>
<path d="M69.7334 14.3555H77.6119L83.7016 44.0831H84.7758L90.8655 14.3555H101.607L107.697 44.0831H108.771L114.861 14.3555H122.74L114.861 50.8876H101.967L96.5959 22.9509H95.8772L90.5062 50.8876H77.6119L69.7334 14.3555Z" fill="#6BF394"/>
<path d="M128.592 7.69346C128.174 7.28358 127.845 6.7926 127.623 6.25067C127.402 5.70873 127.294 5.12727 127.305 4.54198C127.296 3.95137 127.405 3.36488 127.626 2.81715C127.847 2.26942 128.176 1.77157 128.592 1.35301C128.997 0.924943 129.487 0.58602 130.03 0.357881C130.574 0.129742 131.159 0.017402 131.748 0.0280337C132.341 0.0198589 132.93 0.133186 133.478 0.361046C134.026 0.588906 134.522 0.926481 134.935 1.35301C135.361 1.76644 135.698 2.26256 135.925 2.81092C136.153 3.35929 136.266 3.94835 136.258 4.54198C136.268 5.13034 136.156 5.71441 135.928 6.25699C135.7 6.79958 135.362 7.28878 134.935 7.69346C134.517 8.1107 134.019 8.43982 133.472 8.6613C132.925 8.88278 132.338 8.99213 131.748 8.98286C131.162 8.99457 130.579 8.88621 130.037 8.66446C129.494 8.44272 129.003 8.11227 128.592 7.69346ZM128.02 50.8879V14.3558H135.543V50.8879H128.02Z" fill="#6BF394"/>
<path d="M143.958 50.8878V14.3556H151.482V19.3691H151.841C152.548 18.265 153.445 17.295 154.491 16.504C157.033 14.6058 160.13 13.5987 163.302 13.6388C167.835 13.6388 171.357 14.952 173.866 17.5782C176.374 20.2044 177.628 24.0246 177.629 29.0388V50.8878H170.106V29.7556C170.106 26.5567 169.402 24.2049 167.993 22.7003C166.584 21.1956 164.422 20.4433 161.509 20.4433C158.598 20.4433 156.198 21.4345 154.309 23.417C152.426 25.3976 151.483 27.9882 151.482 31.1891V50.8877L143.958 50.8878Z" fill="#6BF394"/>
<path d="M28.7673 59.972C44.0703 59.972 56.4759 47.5664 56.4759 32.2634C56.4759 16.9603 44.0703 4.55469 28.7673 4.55469C13.4642 4.55469 1.05859 16.9603 1.05859 32.2634C1.05859 47.5664 13.4642 59.972 28.7673 59.972Z" fill="#6BF394"/>
<path d="M9.80273 21.5869L16.6846 23.4063L18.8599 40.5714L19.73 45.6198H15.1817C15.1817 45.6198 13.0064 45.1593 12.2549 40.8878C11.5034 36.6163 9.80273 21.5869 9.80273 21.5869Z" fill="white"/>
<path d="M47.7325 21.5869L40.8506 23.4063L38.6753 40.5714L37.8052 45.6198H42.3535C42.3535 45.6198 44.5288 45.1593 45.2803 40.8878C46.0318 36.6163 47.7325 21.5869 47.7325 21.5869Z" fill="#CAFFD8"/>
<path d="M32.3372 28.0588H24.9511C24.9511 28.0588 22.6175 27.8929 21.3122 32.8194C20.1109 37.3538 18.5832 45.6198 15.1816 45.6198C17.8316 45.6211 21.7867 45.6198 21.7867 45.6198C21.7867 45.6198 24.5157 45.8316 26.3746 40.7296C28.2335 35.6277 27.4329 29.773 32.3372 28.0588Z" fill="#CAFFD8"/>
<path d="M24.9507 28.0586H32.149C32.149 28.0586 35.0533 28.1635 35.8866 32.7797C36.8754 38.2573 39.0705 45.6197 42.4719 45.6197C39.822 45.6209 35.8668 45.6197 35.8668 45.6197C35.8668 45.6197 33.1378 45.8314 31.2789 40.7295C29.42 35.6276 29.0442 28.2907 24.9507 28.0586Z" fill="white"/>
</svg>
